# xmcd CD database file
#
# Track frame offsets:
#	150
#	27852
#	78600
#	102825
#	117187
#	135220
#	148677
#	166105
#	191997
#	213075
#
# Disc length: 2985 seconds
#
# Revision: 0
# Processed by: cddbd v1.5.1PL2 Copyright (c) Steve Scherf et al.
# Submitted via: CDex 1.51
#
DISCID=800ba70a
DTITLE=Various Artist - ギター名曲集
DYEAR=1900
DGENRE=Classical
TTITLE0=ホアキン・ロドリーゴ - アランフェス協奏曲 第1楽章 - Allegro con spirito
TTITLE1=ホアキン・ロドリーゴ - アランフェス協奏曲 第2楽章 - Adagio
TTITLE2=ホアキン・ロドリーゴ - アランフェス協奏曲 第3楽章 - Allegro gentile
TTITLE3=フランシス・タレガ - アルハンブラの思い出
TTITLE4=フランシス・タレガ - タンゴ
TTITLE5=マヌエル・デ・ファリャ - バレエ「三角帽子」から-粉屋の踊り
TTITLE6=イサーク・アルベニス - 「旅の思い出」から-入江のざわめき
TTITLE7=エンリケ・グラナドス - スペイン舞曲第4番
TTITLE8=エイトール・ヴィラ=ロボス - 前奏曲第1番ホ短調
TTITLE9=ナルシソ・イエペス - ロマンス
EXTD=
EXTT0=
EXTT1=
EXTT2=
EXTT3=
EXTT4=
EXTT5=
EXTT6=
EXTT7=
EXTT8=
EXTT9=
PLAYORDER=
